<?xml version="1.0" encoding="utf-8"?>
<!-- Generator: Adobe Illustrator 27.5.0, SVG Export Plug-In . SVG Version: 6.00 Build 0)  -->
<svg version="1.1" id="Layer_1" xmlns="http://www.w3.org/2000/svg" xmlns:xlink="http://www.w3.org/1999/xlink" x="0px" y="0px"
	 viewBox="0 0 2122 2122" style="enable-background:new 0 0 2122 2122;" xml:space="preserve">
<g>
	<rect style="fill:#FFFFFF;" width="2121.32" height="2121.32"/>
	<path style="fill:#E6E6E6;" d="M706.649,1474.203c122.759,19.643,144.083-1.98,244.64,82.975
		c52.289,44.203,93.211,66.707,151.267,46.287c119.724-42.025,113.245-217.307,323.525-325.747
		c77.574-39.99,172.513-114.24,209.807-197.222c62.439-138.955-111.18-192.149-147.233-396.329
		c-29.782-168.59-37.612-350.192-227.077-413.908c-109.546-36.857-193.497,0.068-279.242,77.997
		c-60.03,54.54-97.609,99.106-183.812,120.713c-170.278,42.699-349.406,77.78-353.884,244.12
		c-3.52,130.806,133.371,174.258,112.059,416.227C544.29,1270.221,484.675,1438.719,706.649,1474.203"/>
	<g>
		<path style="fill:#C48947;" d="M756.868,1616.129c1.565,0.09,2.948,0.183,4.147,0.277c3.502,0.273,6.706,1.567,9.609,3.869
			c2.904,2.306,5.023,5.255,6.36,8.848c1.335,3.597,1.36,7.513,0.068,11.753c-0.737,2.489-1.707,4.884-2.903,7.19
			c-3.134,5.438-6.499,10.783-10.093,16.037c-7.375,10.506-15.025,20.785-22.949,30.83c-7.929,10.048-16.039,20.004-24.335,29.866
			c-21.291,25.348-43.205,50.118-65.74,74.311c-22.536,24.194-45.373,48.09-68.505,71.687c-9.494,9.584-18.99,19.126-28.481,28.621
			c-5.255,5.251-10.462,10.458-15.623,15.62c-1.935,2.029-3.871,4.057-5.806,6.086c-1.106,1.198-2.261,2.395-3.456,3.593
			c-0.277,0.277-0.671,0.392-1.176,0.345c-0.508-0.047-1.014-0.183-1.52-0.414c-0.509-0.23-0.899-0.575-1.176-1.036
			c-0.552-1.018-0.877-2.076-0.967-3.18c-0.094-1.108,0.183-2.169,0.829-3.183c1.844-2.302,3.823-4.514,5.945-6.636
			c5.807-6.175,11.706-12.304,17.697-18.385c12.167-12.537,24.241-25.211,36.224-38.022c21.291-23.226,42.445-46.503,63.459-69.819
			c4.792-5.345,9.63-10.692,14.517-16.037c23.135-25.715,45.485-52.074,67.054-79.084c10.139-12.351,19.724-25.115,28.758-38.297
			c2.949-4.514,5.669-9.124,8.158-13.825c0.277-0.554,0.599-1.061,0.967-1.522c0.554-1.198,0.968-2.488,1.245-3.869
			c0.183-0.46,0.367-0.921,0.554-1.385c0.09-0.644-0.071-1.36-0.484-2.144c-0.415-0.781-0.948-1.266-1.592-1.449
			c-0.185-0.094-0.368-0.141-0.552-0.141c-1.568-0.46-3.18-0.78-4.839-0.967c-4.517-0.183-8.965,0.068-13.341,0.762
			c-4.379,0.69-8.734,1.543-13.066,2.557c-11.613,2.766-23.088,5.898-34.427,9.401c-11.336,3.503-22.583,7.283-33.733,11.337
			c-25.256,8.941-50.049,18.939-74.382,30.002c-10.509,4.701-20.694,10.045-30.556,16.037c-3.318,2.028-6.546,4.24-9.676,6.636
			c-1.106,0.74-2.167,1.475-3.181,2.212c-0.923,0.647-1.752,1.431-2.489,2.352c-0.276,0.367-0.53,0.827-0.759,1.381
			c-0.232,0.554-0.348,1.061-0.348,1.521c0.183,0.464,0.484,0.899,0.899,1.313c0.415,0.417,0.899,0.669,1.451,0.762
			c5.715,1.381,11.521,2.442,17.422,3.179c7.833,0.921,15.643,1.522,23.433,1.799c7.788,0.273,15.555,0.413,23.296,0.413
			c8.204-0.183,16.361,0.508,24.471,2.075c2.58,0.367,4.978,1.291,7.189,2.762c1.198,0.924,1.937,2.169,2.214,3.734
			c0.183,1.018-0.187,1.568-1.108,1.662c-0.369,0-0.737,0.046-1.106,0.136c-1.474,0.187-2.902,0.137-4.285-0.136
			c-2.951-0.644-5.901-1.061-8.848-1.245c-2.951-0.183-5.945-0.23-8.988-0.14c-1.106,0-2.212-0.044-3.318-0.137
			c-7.835,0.093-15.623,0-23.365-0.277c-6.729-0.277-13.411-0.712-20.047-1.313c-6.637-0.6-13.228-1.543-19.772-2.834
			c-3.686-0.831-7.19-2.029-10.507-3.596c-3.871-1.841-6.359-4.931-7.467-9.262c-0.829-3.133-0.23-5.945,1.799-8.434l0.138-0.14
			c1.658-1.935,3.456-3.687,5.391-5.255c4.515-3.316,9.126-6.405,13.827-9.261c8.202-4.884,16.59-9.333,25.161-13.344
			c8.572-4.01,17.235-7.855,25.992-11.544c16.406-6.913,32.997-13.411,49.772-19.493c16.775-6.082,33.736-11.566,50.879-16.454
			c9.309-2.579,18.666-4.884,28.068-6.913c3.684-0.734,7.189-1.244,10.507-1.517c1.383-0.187,2.627-0.324,3.733-0.418
			C754.608,1616.082,755.852,1616.129,756.868,1616.129z"/>
		<path style="fill:#C48947;" d="M738.337,1822.241c-0.091,0.554-0.139,1.108-0.139,1.658c0,0.554,0.231,1.018,0.692,1.385
			c0.46,0.367,0.921,0.46,1.383,0.277c2.489-1.108,6.589-3.32,12.304-6.639c5.715-3.316,10.667-6.035,14.862-8.157
			c4.193-2.118,7.581-3.385,10.162-3.801c2.578-0.414,1.472,1.478-3.318,5.668c-4.794,4.198-15.9,12.376-33.32,24.543
			c-1.935,1.014-3.871,1.981-5.806,2.902c-2.674,1.108-4.886,0.323-6.636-2.348c-2.029-3.043-2.489-6.223-1.383-9.542
			c0.552-2.025,1.195-4.01,1.935-5.945c0.644-1.475,1.198-2.992,1.66-4.564c0.275-1.104,0.275-2.212,0-3.316
			c0-0.277-0.162-0.529-0.484-0.762c-0.325-0.227-0.622-0.435-0.899-0.622c-0.371,0-0.74,0.025-1.106,0.072
			c-0.37,0.047-0.739,0.115-1.106,0.205c-5.071,1.385-9.772,3.507-14.102,6.363c-12.813,7.557-24.979,16.037-36.501,25.438
			c-2.579,2.118-5.206,4.1-7.881,5.945c-0.367,0.183-0.737,0.414-1.106,0.691c-0.644,0.46-1.496,0.575-2.557,0.345
			c-1.059-0.23-1.867-0.715-2.42-1.449c-2.949-3.32-3.407-6.687-1.383-10.095c1.66-2.949,3.505-5.759,5.531-8.435
			c9.954-13.361,19.999-26.726,30.139-40.094c0.367-0.55,0.692-0.968,0.968-1.245c0.277-0.367,0.485-0.644,0.622-0.827
			c0.138-0.183,0.253-0.345,0.347-0.485c0.09-0.136,0.275-0.345,0.552-0.622c0.277-0.277,0.737-0.737,1.383-1.381
			c0.644-0.644,1.589-0.852,2.834-0.622c1.245,0.23,2.189,0.715,2.834,1.449c1.383,1.845,1.773,3.528,1.176,5.05
			c-0.601,1.517-1.5,3.018-2.696,4.492c-0.277,0.276-0.554,0.6-0.831,0.967c-1.935,2.582-3.594,4.794-4.978,6.636
			c-1.014,1.385-2.051,2.791-3.109,4.218c-1.061,1.428-2.375,3.158-3.941,5.182c-0.829,1.201-1.568,2.489-2.212,3.874
			c-0.186,0.273-0.369,0.601-0.552,0.968c0.09,0.183,0.183,0.345,0.275,0.482c0.091,0.14,0.185,0.208,0.277,0.208
			c0.091,0.094,0.23,0.187,0.415,0.277c0.183,0.094,0.322,0.137,0.415,0.137c1.381-0.554,2.717-1.198,4.008-1.935
			c2.489-1.564,5.023-3.133,7.605-4.701c2.489-1.564,5.023-3.086,7.603-4.564c3.872-2.302,7.972-4.053,12.306-5.251
			c3.41-0.921,6.567-0.575,9.469,1.036c2.904,1.615,4.954,4.172,6.154,7.671c1.012,2.859,1.196,5.719,0.552,8.574
			C738.337,1821.828,738.337,1822.058,738.337,1822.241z"/>
		<path style="fill:#C48947;" d="M814.379,1861.782c-1.66-2.029-2.883-4.262-3.665-6.704c-0.784-2.442-0.852-5.046-0.207-7.811
			c1.196-5.071,3.041-9.908,5.53-14.516c1.106-1.752,2.165-3.55,3.179-5.395c2.489-4.33,4.931-8.661,7.328-12.995
			c0-0.09-0.023-0.252-0.069-0.485c-0.049-0.227-0.117-0.482-0.208-0.759c-0.092-0.183-0.186-0.413-0.276-0.69
			c-0.094,0.094-0.187,0.137-0.277,0.137c-0.277,0.093-0.554,0.186-0.829,0.276c-0.094,0.093-0.187,0.187-0.277,0.277
			c-1.383,0.921-2.766,1.935-4.148,3.043c-1.935,1.568-3.825,3.18-5.669,4.838c-3.78,3.226-7.652,6.315-11.613,9.265
			c-5.624,4.147-11.43,8.11-17.42,11.89c-3.135,2.025-6.591,3.363-10.371,4.007c-2.303,0.277-4.514,0.14-6.636-0.414
			c-1.935-0.46-3.501-1.427-4.7-2.902c-2.118-2.672-3.409-5.507-3.872-8.502c-0.46-2.996,0.094-6.061,1.66-9.196
			c1.475-2.949,3.273-5.711,5.391-8.294c6.267-7.557,13.64-13.778,22.122-18.666c3.594-1.935,7.373-3.456,11.337-4.56
			c6.45-1.939,12.444-1.014,17.974,2.762c0.183,0.187,0.415,0.371,0.69,0.554c0.369,0.277,0.737,0.554,1.106,0.831
			c1.659,1.104,3.319,0.877,4.977-0.691c2.027-1.752,3.962-3.503,5.807-5.255c1.475-1.475,2.994-2.996,4.562-4.564
			c10.138-9.952,20.277-19.954,30.417-30.002c5.161-5.157,10.369-10.369,15.623-15.62c3.684-3.779,7.373-7.513,11.059-11.2
			c1.29-1.385,2.672-2.672,4.149-3.873c0.275-0.183,0.552-0.414,0.829-0.691c0.554-0.367,1.245-0.554,2.073-0.554
			c0.831,0,1.522,0.234,2.073,0.695c0,0.093,0.047,0.183,0.138,0.276c1.106,0.921,1.982,1.935,2.627,3.039
			c1.29,2.122,1.151,4.198-0.413,6.223c-0.923,1.201-1.892,2.305-2.904,3.32c-0.277,0.277-0.554,0.554-0.829,0.827
			c-22.951,23.503-43.506,48.898-61.663,76.181c-4.7,7.19-9.217,14.516-13.55,21.982c-0.091,0.277-0.23,0.554-0.413,0.831
			c-1.845,3.222-3.458,6.542-4.839,9.952c-0.187,0.37-0.37,0.737-0.554,1.108c-0.462,0.831-0.784,1.679-0.967,2.557
			c-0.186,0.874,0.138,1.68,0.967,2.42c0.829,0.645,1.728,0.849,2.696,0.622c0.967-0.23,1.911-0.579,2.834-1.036
			c0.277-0.094,0.508-0.187,0.692-0.277c4.791-2.029,9.492-4.287,14.102-6.776c10.784-6.082,22.166-12.79,34.149-20.116
			c11.98-7.33,20.968-13.156,26.96-17.49c1.014-0.554,2.143-0.762,3.387-0.622c1.245,0.137,2.282,0.809,3.111,2.003
			c0.829,1.752-0.578,4.355-4.217,7.812c-3.643,3.456-8.481,7.282-14.518,11.477c-6.038,4.193-12.235,8.225-18.595,12.098
			c-6.359,3.87-11.82,7.118-16.382,9.747c-4.562,2.625-7.213,4.122-7.951,4.492c-5.255,2.766-10.601,5.298-16.039,7.604
			c-1.935,0.644-3.642,1.014-5.114,1.108c-0.37,0.09-0.692,0.183-0.968,0.277C819.263,1865.562,816.128,1864.271,814.379,1861.782z
			 M816.59,1803.852c-0.094-0.277-0.187-0.503-0.277-0.69c-1.106-1.198-2.444-1.705-4.011-1.522
			c-6.729,0.648-12.951,2.813-18.664,6.5c-6.913,4.333-13.09,9.538-18.526,15.623c-1.383,1.568-2.651,3.179-3.804,4.837
			c-1.151,1.662-2.05,3.456-2.696,5.395c0,0.367,0.049,0.737,0.138,1.104c0.094,0.37,0.232,0.647,0.415,0.831
			c0.186,0.183,0.484,0.345,0.898,0.482c0.415,0.141,0.76,0.162,1.037,0.072c1.106-0.094,2.165-0.371,3.18-0.831
			c0.737-0.367,1.475-0.784,2.212-1.244c2.949-1.381,5.759-2.903,8.434-4.564c11.151-7.466,21.568-15.713,31.247-24.747
			c0.183-0.183,0.322-0.414,0.415-0.691c0.09-0.09,0.183-0.183,0.275-0.277C816.774,1804.039,816.68,1803.946,816.59,1803.852z"/>
		<path style="fill:#C48947;" d="M891.664,1845.608c-1.937-1.568-3.341-3.507-4.217-5.809c-0.876-2.302-1.176-4.654-0.899-7.049
			c0.368-2.212,1.061-4.288,2.073-6.223c1.568-3.042,3.318-5.898,5.254-8.574c6.636-8.938,14.102-17.188,22.398-24.748
			c0.921-0.737,1.889-1.428,2.903-2.071c0.183-0.183,0.415-0.367,0.692-0.554c0.552-0.367,1.221-0.529,2.006-0.485
			c0.78,0.05,1.496,0.302,2.141,0.762c2.949,2.399,3.226,4.884,0.831,7.466c-6.822,6.823-13.273,13.962-19.356,21.428
			c-0.185,0.277-0.415,0.554-0.69,0.831c-2.031,2.395-3.921,4.884-5.67,7.467c-1.75,2.579-3.18,5.438-4.285,8.571
			c-0.092,0.464,0.046,0.921,0.416,1.381c0.368,0.464,0.829,0.694,1.381,0.694c0.462,0,0.877,0,1.244,0
			c1.106,0,2.166-0.094,3.181-0.277c4.056-0.921,8.018-1.935,11.891-3.043c8.753-2.579,17.188-5.668,25.3-9.264
			c8.11-3.593,15.346-6.956,21.707-10.092c4.884-2.395,8.939-4.33,12.167-5.805c0.644-0.183,1.381-0.367,2.212-0.554
			c0.829-0.183,1.566-0.208,2.212-0.068c0.644,0.137,0.967,0.529,0.967,1.173c-0.277,1.845-2.651,4.266-7.12,7.262
			c-4.472,2.996-10.14,6.197-17.006,9.606c-6.868,3.413-13.963,6.66-21.291,9.746c-7.328,3.089-13.987,5.599-19.979,7.534
			c-5.992,1.939-10.369,2.949-13.135,3.043C896.043,1847.957,893.599,1847.173,891.664,1845.608z M941.85,1773.577
			c-0.552-0.094-1.014-0.277-1.383-0.554c-1.014-1.014-1.613-2.19-1.796-3.524c-0.186-1.338,0.138-2.468,0.967-3.388
			c2.766-3.043,6.084-5.301,9.956-6.776c1.935-0.644,3.594-0.23,4.976,1.244c1.567,1.385,2.165,3.043,1.799,4.978
			c-0.094,0.37-0.232,0.737-0.415,1.108c-0.186,0.367-0.414,0.6-0.691,0.691c-3.134,1.751-6.222,3.409-9.262,4.977
			c-1.016,0.55-2.029,1.104-3.043,1.658C942.587,1773.807,942.217,1773.667,941.85,1773.577z"/>
		<path style="fill:#C48947;" d="M1003.788,1849.615c-2.029-1.381-3.503-3.269-4.424-5.668c-0.923-2.395-1.106-4.743-0.552-7.049
			c0.367-1.385,0.782-2.719,1.245-4.011c0.275-0.831,0.552-1.658,0.829-2.489c0-0.09-0.049-0.208-0.138-0.345
			c-0.094-0.137-0.185-0.252-0.277-0.345c-0.091-0.09-0.23-0.162-0.413-0.208c-0.187-0.044-0.326-0.068-0.415-0.068
			c-0.094,0.094-0.186,0.136-0.277,0.136c-1.751,0.741-3.457,1.522-5.115,2.353c-4.887,2.399-9.865,4.47-14.932,6.222
			c-3.318,1.014-6.729,1.475-10.23,1.381c-2.672-0.09-4.909-1.011-6.706-2.766c-1.799-1.748-2.994-3.87-3.595-6.359
			c-0.599-2.489-0.345-4.884,0.761-7.189c0.186-2.212,2.005-5.298,5.462-9.262c3.456-3.963,8.247-7.582,14.379-10.854
			c6.128-3.269,12.695-5.276,19.7-6.013c2.672-0.46,5.3-0.507,7.881-0.14c2.579,0.37,4.978,1.384,7.19,3.042
			c1.29,0.831,2.073,1.727,2.35,2.698c0.275,0.967,0.297,1.819,0.068,2.557c-0.231,0.737-0.53,1.198-0.899,1.381
			c-1.568-0.09-2.996-0.23-4.285-0.413c-1.383-0.183-2.972-0.277-4.768-0.277c-1.799,0-4.172,0.413-7.121,1.244
			c-4.517,1.291-9.011,2.949-13.48,4.978c-4.472,2.029-8.572,4.539-12.306,7.534c-3.732,2.996-6.703,6.568-8.918,10.714
			c-0.367,0.647-0.296,1.108,0.209,1.385c0.507,0.273,1.174,0.435,2.005,0.482c0.829,0.046,1.637,0.046,2.419,0
			c0.782-0.047,1.313-0.116,1.59-0.209c3.594-1.01,7.096-2.212,10.507-3.593c7.556-3.225,14.771-7.002,21.637-11.336
			c6.866-4.334,13.343-9.265,19.426-14.796c1.013-1.011,2.074-1.935,3.18-2.762c0.46-0.367,0.967-0.554,1.521-0.554
			c0.552,0,1.106,0.187,1.658,0.554c1.383,1.104,2.395,2.442,3.043,4.006c0.46,1.201,0.322,2.305-0.415,3.32
			c-0.739,0.924-1.568,1.799-2.489,2.626c-0.368,0.277-0.739,0.6-1.106,0.971c-6.636,6.729-12.491,14.055-17.558,21.982
			c-0.094,0.183-0.186,0.323-0.277,0.413c-0.829,1.198-1.589,2.468-2.28,3.801c-0.692,1.338-1.223,2.745-1.591,4.219
			c-0.092,0.46,0.021,0.827,0.347,1.104c0.322,0.277,0.711,0.367,1.174,0.277c16.129-7.373,28.779-14.678,37.953-21.914
			c9.17-7.232,14.675-11.037,16.521-11.404c1.843-0.367,3.043-0.324,3.594,0.136c0.554,0.464,0.554,1.891,0,4.287
			c-17.42,13.919-29.565,23.295-36.431,28.136c-6.868,4.837-10.991,7.488-12.374,7.948c-0.092,0-0.186,0.046-0.277,0.136
			c-1.291,0.37-2.604,0.737-3.94,1.108c-1.336,0.367-2.696,0.507-4.079,0.414
			C1006.921,1851.136,1005.263,1850.629,1003.788,1849.615z"/>
		<path style="fill:#C48947;" d="M1116.057,1822.241c-0.093,0.554-0.144,1.108-0.144,1.658c0,0.554,0.23,1.018,0.691,1.385
			c0.46,0.367,0.921,0.46,1.388,0.277c2.489-1.108,6.589-3.32,12.301-6.639c5.718-3.316,10.667-6.035,14.868-8.157
			c4.187-2.118,7.574-3.385,10.156-3.801c2.582-0.414,1.475,1.478-3.316,5.668c-4.791,4.198-15.897,12.376-33.318,24.543
			c-1.935,1.014-3.87,1.981-5.812,2.902c-2.669,1.108-4.884,0.323-6.632-2.348c-2.029-3.043-2.489-6.223-1.381-9.542
			c0.554-2.025,1.194-4.01,1.935-5.945c0.64-1.475,1.194-2.992,1.654-4.564c0.281-1.104,0.281-2.212,0-3.316
			c0-0.277-0.158-0.529-0.482-0.762c-0.323-0.227-0.619-0.435-0.899-0.622c-0.367,0-0.74,0.025-1.107,0.072
			c-0.368,0.047-0.734,0.115-1.101,0.205c-5.071,1.385-9.775,3.507-14.105,6.363c-12.811,7.557-24.978,16.037-36.499,25.438
			c-2.579,2.118-5.206,4.1-7.88,5.945c-0.368,0.183-0.737,0.414-1.106,0.691c-0.644,0.46-1.496,0.575-2.557,0.345
			c-1.059-0.23-1.866-0.715-2.42-1.449c-2.949-3.32-3.407-6.687-1.383-10.095c1.66-2.949,3.505-5.759,5.532-8.435
			c9.953-13.361,19.998-26.726,30.139-40.094c0.367-0.55,0.692-0.968,0.967-1.245c0.277-0.367,0.485-0.644,0.622-0.827
			c0.139-0.183,0.253-0.345,0.347-0.485c0.09-0.136,0.275-0.345,0.552-0.622c0.277-0.277,0.737-0.737,1.383-1.381
			c0.644-0.644,1.59-0.852,2.834-0.622c1.248,0.23,2.19,0.715,2.837,1.449c1.381,1.845,1.769,3.528,1.173,5.05
			c-0.604,1.517-1.496,3.018-2.697,4.492c-0.273,0.276-0.554,0.6-0.827,0.967c-1.937,2.582-3.597,4.794-4.98,6.636
			c-1.013,1.385-2.051,2.791-3.109,4.218c-1.061,1.428-2.375,3.158-3.941,5.182c-0.829,1.201-1.568,2.489-2.212,3.874
			c-0.186,0.273-0.369,0.601-0.552,0.968c0.09,0.183,0.183,0.345,0.276,0.482c0.091,0.14,0.185,0.208,0.277,0.208
			c0.091,0.094,0.23,0.187,0.415,0.277c0.183,0.094,0.322,0.137,0.415,0.137c1.381-0.554,2.717-1.198,4.008-1.935
			c2.489-1.564,5.022-3.133,7.604-4.701c2.489-1.564,5.021-3.086,7.604-4.564c3.87-2.302,7.97-4.053,12.307-5.251
			c3.409-0.921,6.567-0.575,9.466,1.036c2.906,1.615,4.956,4.172,6.158,7.671c1.014,2.859,1.194,5.719,0.553,8.574
			C1116.057,1821.828,1116.057,1822.058,1116.057,1822.241z"/>
		<path style="fill:#C48947;" d="M1545.893,1638.221c-12.167,0.554-24.427,1.385-36.775,2.489c-1.108,0.094-2.216,0.187-3.32,0.277
			c-17.328,1.475-34.749,3.273-52.261,5.391c-23.503,2.766-47.006,6.039-70.51,9.819c-16.962,2.579-33.898,5.485-50.812,8.708
			c-16.915,3.23-33.8,6.963-50.668,11.199c-8.207,2.122-16.365,4.424-24.474,6.913c-1.658,0.554-3.363,1.108-5.115,1.661
			c-5.714,1.658-11.246,4.007-16.59,7.05c-1.568,0.831-3.043,1.798-4.424,2.902c-0.554,0.464-1.108,0.878-1.658,1.245
			c-0.464,0.37-0.694,0.856-0.694,1.453c0,0.601,0.14,1.086,0.417,1.453c2.118,1.658,4.56,2.902,7.326,3.733
			c0.277,0.09,0.601,0.183,0.968,0.273c1.385,0.464,2.766,0.924,4.151,1.385c2.212,0.737,4.423,1.522,6.635,2.349
			c1.748,0.648,2.716,1.939,2.903,3.874c0.09,0.277,0.09,0.622,0,1.036c-0.094,0.413-0.277,0.762-0.554,1.036
			c-0.277,0.187-0.622,0.37-1.036,0.554c-0.414,0.187-0.759,0.277-1.036,0.277c-7.189-1.104-13.828-3.226-19.91-6.359
			c-4.794-2.489-7.42-6.589-7.88-12.307c-0.187-2.302,0.597-4.373,2.348-6.218c2.029-2.216,4.288-4.057,6.776-5.532
			c4.607-2.489,9.354-4.747,14.242-6.776c4.513-1.935,9.124-3.593,13.825-4.978c4.701-1.381,9.401-2.715,14.102-4.006
			c0.09,0,0.183,0,0.277,0c15.206-4.151,30.415-7.697,45.622-10.646c20.554-4.056,41.065-7.696,61.526-10.923
			c20.551-3.133,41.015-5.808,61.386-8.02c12.905-1.291,25.805-2.442,38.713-3.457c7.833-0.554,15.713-1.198,23.64-1.935
			c4.701-0.367,9.402-0.6,14.102-0.69c2.028-0.094,4.057-0.141,6.085-0.141c3.683-0.183,7.372-0.32,11.059-0.413
			c13.178-0.554,26.359-1.058,39.541-1.522c3.78-0.183,7.467-0.046,11.063,0.414c2.672,0.37,4.284,1.935,4.838,4.701
			c0,0.277-0.115,0.622-0.345,1.039c-0.23,0.413-0.485,0.806-0.762,1.173c-0.273,0.37-0.55,0.554-0.827,0.554
			c-4.517-0.554-9.218-0.597-14.102-0.137c-3.963,0.367-8.02,0.46-12.167,0.277
			C1556.352,1637.667,1551.148,1637.944,1545.893,1638.221z M1229.287,1904.918c-0.187,0-0.323,0-0.417,0c-0.09,0-0.183,0-0.277,0
			c-1.014-0.831-1.637-1.888-1.864-3.179c-0.234-1.291,0.022-2.489,0.759-3.593c0.554-0.924,1.151-1.845,1.798-2.766
			c0.09-0.094,0.137-0.187,0.137-0.277c14.008-20.554,28.204-41.018,42.583-61.386c14.379-20.37,29.082-40.511,44.104-60.418
			c12.811-16.775,25.805-33.459,38.99-50.049c1.935-2.395,3.823-4.791,5.668-7.19c6.172-7.833,12.394-15.577,18.662-23.226
			c2.579-3.133,5.161-6.269,7.744-9.401c1.474-1.939,3.042-3.823,4.7-5.668c1.108-1.291,2.28-1.866,3.525-1.73
			c1.244,0.137,2.143,0.81,2.697,2.004c0.921,2.489,0.69,5.028-0.691,7.606c-1.201,2.029-2.582,4.01-4.151,5.945
			c-1.935,2.489-3.823,4.931-5.668,7.327c-7.19,9.217-14.426,18.436-21.705,27.65c-17.144,21.478-34.174,43.047-51.085,64.705
			c-16.915,21.662-33.484,43.598-49.704,65.81c-6.358,8.758-12.627,17.558-18.802,26.409c-3.687,5.161-7.377,10.322-11.06,15.484
			c-1.201,1.568-2.489,3.133-3.873,4.701c-0.183,0.367-0.414,0.69-0.691,0.967c-0.094,0.09-0.187,0.162-0.277,0.208
			c-0.094,0.047-0.23,0.069-0.413,0.069c-0.093,0-0.23,0-0.414,0C1229.47,1904.918,1229.377,1904.918,1229.287,1904.918z"/>
		<path style="fill:#C48947;" d="M1416.623,1790.441c1.104,0.464,2.348,1.432,3.733,2.906c1.658,2.212,2.489,4.24,2.489,6.081v0.554
			c0,2.029-1.014,3.827-3.043,5.392c-2.949,1.845-5.898,3.413-8.847,4.701c-2.122,0.924-4.888,1.844-8.297,2.765
			c-4.334,0.924-7.79,1.381-10.369,1.381c-2.856,0-5.161-0.503-6.913-1.517h-0.413c-1.108,0.46-3.457,2.348-7.053,5.668
			c-1.658,1.935-2.856,3.41-3.593,4.424c-2.121,3.226-3.179,5.578-3.179,7.049c0,1.752,0.968,2.953,2.902,3.597
			c1.749,0.37,3.687,0.554,5.805,0.554c5.344,0,15.21-1.752,29.589-5.255c13.732-3.779,25.485-7.973,35.257-12.581
			c8.754-4.427,13.455-6.639,14.102-6.639c0.46-0.09,0.967-0.137,1.518-0.137c1.197,0,1.981,0.414,2.352,1.245
			c0.09,0.37,0.136,0.6,0.136,0.69v0.14c-2.579,2.395-4.974,4.334-7.189,5.805c-9.491,6.269-20.555,11.801-33.182,16.591
			c-4.514,1.752-9.354,3.366-14.516,4.841c-7.19,2.029-11.289,3.039-12.304,3.039c-4.424,0.831-8.391,1.244-11.891,1.244h-0.413
			c-5.625,0-9.866-1.198-12.721-3.592c-1.658-1.291-2.996-2.766-4.01-4.424c-1.841-3.043-2.766-6.085-2.766-9.125v-0.277
			c0-5.255,2.352-10.185,7.053-14.796c1.198-1.381,2.856-2.992,4.978-4.837c4.147-3.597,8.34-6.589,12.581-8.988
			c9.491-4.978,17.511-7.467,24.057-7.467C1413.67,1789.474,1415.055,1789.797,1416.623,1790.441z M1392.843,1807.309
			c2.396,0,6.726-1.058,12.994-3.18c3.043-1.198,5.255-2.255,6.639-3.179c1.471-1.198,2.212-2.075,2.212-2.626
			c0-0.183-0.323-0.323-0.967-0.417c-2.676,0.094-7.884,1.752-15.623,4.978c-4.057,1.935-6.086,3.273-6.086,4.01
			C1392.012,1807.172,1392.289,1807.309,1392.843,1807.309z"/>
		<path style="fill:#C48947;" d="M1490.316,1849.615c-2.029-1.381-3.507-3.269-4.424-5.668c-0.924-2.395-1.108-4.743-0.554-7.049
			c0.367-1.385,0.781-2.719,1.244-4.011c0.277-0.831,0.554-1.658,0.828-2.489c0-0.09-0.047-0.208-0.137-0.345
			c-0.094-0.137-0.187-0.252-0.277-0.345c-0.094-0.09-0.23-0.162-0.414-0.208c-0.186-0.044-0.323-0.068-0.417-0.068
			c-0.09,0.094-0.183,0.136-0.273,0.136c-1.755,0.741-3.456,1.522-5.118,2.353c-4.884,2.399-9.862,4.47-14.93,6.222
			c-3.32,1.014-6.729,1.475-10.232,1.381c-2.672-0.09-4.909-1.011-6.708-2.766c-1.794-1.748-2.992-3.87-3.593-6.359
			c-0.597-2.489-0.345-4.884,0.759-7.189c0.187-2.212,2.007-5.298,5.463-9.262c3.457-3.963,8.247-7.582,14.379-10.854
			c6.128-3.269,12.695-5.276,19.702-6.013c2.672-0.46,5.297-0.507,7.88-0.14c2.579,0.37,4.978,1.384,7.19,3.042
			c1.287,0.831,2.071,1.727,2.348,2.698c0.277,0.967,0.299,1.819,0.072,2.557c-0.234,0.737-0.533,1.198-0.899,1.381
			c-1.568-0.09-2.996-0.23-4.287-0.413c-1.381-0.183-2.971-0.277-4.769-0.277c-1.798,0-4.172,0.413-7.12,1.244
			c-4.517,1.291-9.01,2.949-13.48,4.978c-4.471,2.029-8.571,4.539-12.304,7.534c-3.734,2.996-6.708,6.568-8.92,10.714
			c-0.367,0.647-0.298,1.108,0.208,1.385c0.508,0.273,1.176,0.435,2.003,0.482c0.831,0.046,1.64,0.046,2.42,0
			c0.781-0.047,1.313-0.116,1.59-0.209c3.596-1.01,7.095-2.212,10.509-3.593c7.557-3.225,14.768-7.002,21.637-11.336
			c6.866-4.334,13.339-9.265,19.425-14.796c1.011-1.011,2.072-1.935,3.18-2.762c0.46-0.367,0.967-0.554,1.521-0.554
			c0.554,0,1.104,0.187,1.658,0.554c1.385,1.104,2.396,2.442,3.043,4.006c0.46,1.201,0.32,2.305-0.418,3.32
			c-0.737,0.924-1.567,1.799-2.485,2.626c-0.37,0.277-0.74,0.6-1.107,0.971c-6.636,6.729-12.491,14.055-17.558,21.982
			c-0.094,0.183-0.187,0.323-0.277,0.413c-0.831,1.198-1.59,2.468-2.28,3.801c-0.691,1.338-1.223,2.745-1.589,4.219
			c-0.094,0.46,0.021,0.827,0.345,1.104c0.32,0.277,0.712,0.367,1.176,0.277c16.127-7.373,28.776-14.678,37.951-21.914
			c9.171-7.232,14.677-11.037,16.522-11.404c1.841-0.367,3.039-0.324,3.593,0.136c0.554,0.464,0.554,1.891,0,4.287
			c-17.421,13.919-29.564,23.295-36.429,28.136c-6.869,4.837-10.991,7.488-12.376,7.948c-0.094,0-0.187,0.046-0.277,0.136
			c-1.291,0.37-2.604,0.737-3.938,1.108c-1.338,0.367-2.697,0.507-4.078,0.414
			C1493.449,1851.136,1491.787,1850.629,1490.316,1849.615z"/>
	</g>
	<g>
		<path style="opacity:0.5;fill:#E8A254;" d="M1260.352,1632.58c0,19.354-98.722,35.051-220.492,35.051
			c-121.771,0-220.493-15.697-220.493-35.051c0-19.35,98.722-35.042,220.493-35.042
			C1161.631,1597.538,1260.352,1613.23,1260.352,1632.58z"/>
		<g>
			<path style="fill:#EBEBEB;" d="M1039.86,974.39c-131.592,0-238.241,15.798-238.241,35.279l29.777,230.258
				c0,1.831,6.314,3.432,17.362,4.818l31.695,369.062c1.285,15.142,13.967,26.76,29.163,26.76h260.514
				c15.195,0,27.869-11.627,29.171-26.76l31.66-369.062c11.049-1.385,17.38-2.987,17.38-4.818l29.76-230.258
				C1278.101,990.188,1171.451,974.39,1039.86,974.39z"/>
			<path style="fill:#C48947;" d="M1258.665,1159.72l-10.323,80.207c0,1.79-6.36,3.479-17.38,4.763l-24.823,289.185l-3.46,40.996
				c-39.422,4.268-110.21,9.534-162.819,9.534c-46.737,0-90.435-1.991-127.251-5.561l-35.55-3.973l-4.185-49.242l-24.116-280.939
				c-10.994-1.285-17.362-2.974-17.362-4.763l-10.333-80.014v-0.193H1258.665z"/>
			<path style="fill:#D4862F;" d="M1259.317,1155.081c0,17.959-98.244,32.503-219.457,32.503
				c-121.186,0-219.42-14.544-219.42-32.503c0-17.939,98.235-32.485,219.42-32.485
				C1161.073,1122.596,1259.317,1137.142,1259.317,1155.081z"/>
			<path style="fill:#D4862F;" d="M1259.317,1155.081c0,17.959-98.244,32.503-219.457,32.503
				c-121.186,0-219.42-14.544-219.42-32.503c0-17.939,98.235-32.485,219.42-32.485
				C1161.073,1122.596,1259.317,1137.142,1259.317,1155.081z"/>
			<path style="fill:#EDB26F;" d="M1259.317,1155.081c0,17.959-98.244,32.503-219.457,32.503
				c-121.186,0-219.42-14.544-219.42-32.503c0-17.939,98.235-32.485,219.42-32.485
				C1161.073,1122.596,1259.317,1137.142,1259.317,1155.081z"/>
			<path style="opacity:0.4;fill:#EDB26F;" d="M1244.955,1155.091c0,8.846-48.442,16.022-108.164,16.022
				c-59.739,0-108.173-7.176-108.173-16.022s48.434-16.018,108.173-16.018C1196.513,1139.072,1244.955,1146.244,1244.955,1155.091z"
				/>
			<path style="opacity:0.5;fill:#EDB26F;" d="M839.233,1159.716c0-17.945,98.225-32.485,219.448-32.485
				c73.395,0,138.318,5.332,178.153,13.526c-35.761-10.755-110.504-18.16-196.974-18.16c-121.186,0-219.42,14.546-219.42,32.485
				c0,7.084,15.324,13.637,41.304,18.978C847.364,1169.727,839.233,1164.864,839.233,1159.716z"/>
			<g>
				<path style="fill:#783800;" d="M1039.862,1588.126c-45.867,0-89.996-1.928-127.612-5.578
					c-13.761-1.288-25.442-2.594-35.692-3.985c-2.036-0.277-3.464-2.155-3.187-4.194c0.277-2.035,2.126-3.442,4.194-3.186
					c10.146,1.381,21.723,2.676,35.39,3.952c37.396,3.629,81.274,5.546,126.907,5.546c50.423,0,98.893-2.363,140.167-6.834
					c7.736-0.784,15.124-1.683,22.137-2.661c2.05-0.313,3.916,1.137,4.201,3.172c0.284,2.035-1.137,3.916-3.172,4.201
					c-7.1,0.992-14.58,1.899-22.389,2.694C1139.295,1585.749,1090.547,1588.126,1039.862,1588.126z"/>
			</g>
			<g>
				<path style="fill:#783800;" d="M1078.492,1253.085c-102.839,0-220.726-2.381-230.61-4.777l1.755-7.236
					c15.695,3.805,360.721,7.801,379.952,0.158l2.747,6.92C1223.241,1251.765,1155.03,1253.085,1078.492,1253.085z"/>
			</g>
			<g>
				<path style="fill:#783800;" d="M901.267,1303.479c0,0,0.972,15.458,2.44,38.638c1.377,23.194,2.79,54.133,4.13,85.075
					c1.138,30.948,2.202,61.897,2.697,85.122c0.404,23.226,0.652,38.712,0.652,38.712c0.027,0.895-0.707,1.624-1.597,1.638
					c-0.872,0.014-1.55-0.661-1.606-1.505c0,0-1.009-15.462-2.478-38.647c-1.358-23.183-2.753-54.127-4.112-85.066
					c-1.119-30.948-2.239-61.9-2.716-85.122c-0.376-23.234-0.652-38.72-0.652-38.72c0-0.89,0.706-1.624,1.597-1.638
					C900.478,1301.952,901.212,1302.622,901.267,1303.479z"/>
				<path style="fill:#783800;" d="M971.393,1303.508c0,0,0.68,15.471,1.707,38.665c0.881,23.198,1.67,54.142,2.395,85.081
					c0.505,30.943,0.963,61.886,0.991,85.108c-0.082,23.221-0.119,38.693-0.119,38.693c0,0.904-0.734,1.62-1.633,1.611
					c-0.863,0-1.56-0.689-1.597-1.542c0,0-0.679-15.462-1.688-38.66c-0.899-23.198-1.67-54.142-2.395-85.075
					c-0.505-30.953-0.982-61.905-1.036-85.117c0.091-23.221,0.164-38.693,0.164-38.693c0-0.895,0.706-1.611,1.634-1.611
					C970.659,1301.966,971.339,1302.654,971.393,1303.508z"/>
				<path style="fill:#783800;" d="M1041.52,1303.54c0,0,0.385,15.472,0.927,38.688c0.432,23.198,0.596,54.141,0.707,85.08
					c-0.111,30.948-0.276,61.891-0.707,85.098c-0.542,23.207-0.927,38.679-0.927,38.679c-0.018,0.899-0.734,1.597-1.633,1.579
					c-0.863-0.019-1.57-0.716-1.57-1.579c0,0-0.375-15.472-0.908-38.679c-0.459-23.207-0.588-54.15-0.697-85.098
					c0.11-30.939,0.258-61.882,0.697-85.08c0.533-23.217,0.908-38.688,0.908-38.688c0-0.891,0.762-1.588,1.652-1.574
					C1040.842,1301.979,1041.503,1302.685,1041.52,1303.54z"/>
				<path style="fill:#783800;" d="M1111.667,1303.576c0,0,0.046,15.472,0.127,38.693c-0.027,23.212-0.477,54.164-0.991,85.117
					c-0.734,30.933-1.514,61.877-2.422,85.075c-1.011,23.198-1.679,38.66-1.679,38.66c-0.056,0.891-0.781,1.584-1.662,1.542
					c-0.872-0.041-1.578-0.743-1.578-1.611c0,0-0.054-15.472-0.128-38.693c0.018-23.222,0.513-54.164,1-85.108
					c0.762-30.939,1.542-61.883,2.423-85.081c1-23.194,1.698-38.665,1.698-38.665c0.018-0.886,0.78-1.574,1.67-1.542
					C1110.997,1301.998,1111.667,1302.714,1111.667,1303.576z"/>
				<path style="fill:#783800;" d="M1181.802,1303.604c0,0-0.247,15.486-0.651,38.72c-0.496,23.222-1.56,54.174-2.698,85.122
					c-1.34,30.939-2.753,61.883-4.13,85.066c-1.441,23.185-2.44,38.647-2.44,38.647c-0.055,0.886-0.845,1.56-1.698,1.505
					c-0.872-0.056-1.541-0.78-1.541-1.638c0,0,0.274-15.486,0.651-38.712c0.505-23.225,1.596-54.173,2.717-85.122
					c1.357-30.943,2.752-61.881,4.128-85.075c1.45-23.18,2.459-38.638,2.459-38.638c0.055-0.885,0.79-1.565,1.689-1.514
					C1181.151,1302.02,1181.83,1302.75,1181.802,1303.604z"/>
			</g>
			<g style="opacity:0.4;">
				<path style="fill:#EDB26F;" d="M914.388,1294.565c0,0,0.991,16.582,2.478,41.433c1.358,24.854,2.753,58.023,4.112,91.178
					c1.119,33.174,2.22,66.355,2.707,91.242c0.385,24.901,0.651,41.505,0.651,41.505c0,0.955-0.706,1.735-1.587,1.753
					c-0.872,0.018-1.597-0.706-1.652-1.62c0,0-0.964-16.568-2.45-41.418c-1.377-24.85-2.781-58.019-4.111-91.187
					c-1.148-33.174-2.221-66.347-2.698-91.238c-0.423-24.91-0.652-41.501-0.652-41.501c-0.027-0.949,0.706-1.747,1.588-1.762
					C913.637,1292.937,914.334,1293.656,914.388,1294.565z"/>
				<path style="fill:#EDB26F;" d="M984.553,1294.601c0,0,0.679,16.586,1.671,41.445c0.917,24.873,1.67,58.037,2.423,91.201
					c0.495,33.174,0.972,66.347,1,91.224c-0.082,24.896-0.137,41.479-0.137,41.479c0,0.958-0.734,1.73-1.615,1.725
					c-0.863,0-1.559-0.734-1.615-1.647c0,0-0.678-16.578-1.67-41.437c-0.918-24.878-1.679-58.041-2.441-91.205
					c-0.477-33.169-0.954-66.342-0.991-91.229c0.091-24.887,0.147-41.483,0.147-41.483c0-0.946,0.725-1.735,1.606-1.726
					C983.801,1292.949,984.498,1293.693,984.553,1294.601z"/>
				<path style="fill:#EDB26F;" d="M1054.68,1294.643c0,0,0.348,16.587,0.927,41.464c0.432,24.869,0.596,58.041,0.688,91.201
					c-0.092,33.173-0.256,66.346-0.688,91.219c-0.579,24.878-0.927,41.469-0.927,41.469c-0.018,0.954-0.753,1.697-1.652,1.679
					c-0.844-0.018-1.55-0.771-1.578-1.679c0,0-0.348-16.591-0.899-41.469c-0.45-24.873-0.587-58.046-0.716-91.219
					c0.129-33.16,0.266-66.333,0.716-91.201c0.551-24.878,0.899-41.464,0.899-41.464c0.027-0.959,0.753-1.706,1.67-1.693
					C1053.982,1292.968,1054.662,1293.729,1054.68,1294.643z"/>
				<path style="fill:#EDB26F;" d="M1124.816,1294.675c0,0,0.055,16.596,0.138,41.483c-0.027,24.886-0.513,58.06-1.01,91.229
					c-0.734,33.164-1.496,66.327-2.422,91.205c-0.991,24.859-1.662,41.437-1.662,41.437c-0.054,0.95-0.817,1.693-1.707,1.647
					c-0.853-0.037-1.532-0.798-1.532-1.725c0,0-0.055-16.582-0.129-41.479c0.018-24.877,0.477-58.051,0.991-91.224
					c0.726-33.164,1.505-66.328,2.431-91.201c0.991-24.859,1.662-41.445,1.662-41.445c0.055-0.945,0.788-1.688,1.688-1.652
					C1124.11,1292.996,1124.816,1293.762,1124.816,1294.675z"/>
				<path style="fill:#EDB26F;" d="M1194.953,1294.711c0,0-0.239,16.591-0.652,41.501c-0.486,24.891-1.55,58.065-2.708,91.238
					c-1.358,33.168-2.734,66.337-4.111,91.187c-1.486,24.85-2.44,41.418-2.44,41.418c-0.092,0.959-0.845,1.679-1.744,1.62
					c-0.844-0.055-1.523-0.845-1.496-1.753c0,0,0.267-16.604,0.652-41.505c0.477-24.887,1.578-58.069,2.716-91.242
					c1.34-33.155,2.716-66.324,4.093-91.178c1.487-24.851,2.45-41.433,2.45-41.433c0.083-0.945,0.835-1.661,1.735-1.606
					C1194.301,1293.018,1194.971,1293.794,1194.953,1294.711z"/>
			</g>
			<path style="fill:#EDB26F;" d="M872.342,1269.095c0,0,19.298,10.861,27.31,26.677c0,0,10.24-22.029,32.245-26.677H872.342z"/>
			<path style="fill:#EDB26F;" d="M1212.957,1269.095c-33.797,8.063-249.024,1.363-269.533,1.005c0,0,22.932,7.993,26.024,25.672
				c0,0,6.533-19.679,24.189-20.923c17.647-1.239,40.964,5.722,46.223,14.095c0,0,4.634-6.152,16.435-8.997
				c11.809-2.835,45.341-3.414,55.499,17.684c0,0,10.819-20.849,35.715-19.849c15.509,0.619,25.438,5.891,31.935,19.849
				C1179.444,1297.63,1185.354,1274.051,1212.957,1269.095z"/>
			<path style="fill:#212121;" d="M925.391,1247.7c-11.057-1.73-17.352-3.725-17.352-6.001l-24.887-258.585
				c-49.938,6.46-81.533,15.967-81.533,26.556l29.777,230.258c0,1.831,6.314,3.432,17.362,4.818l31.695,369.062
				c1.285,15.142,13.967,26.76,29.163,26.76h44.076L925.391,1247.7z"/>
			<g>
				<path style="fill:#783800;" d="M1039.862,1048.668c-97.261,0-241.964-10.386-241.964-38.997
					c0-28.617,144.703-39.004,241.964-39.004c97.26,0,241.963,10.387,241.963,39.004
					C1281.825,1038.282,1137.122,1048.668,1039.862,1048.668z M1039.862,978.111c-145.3,0-234.519,18.382-234.519,31.56
					c0,13.174,89.219,31.553,234.519,31.553c145.299,0,234.519-18.378,234.519-31.553
					C1274.38,996.493,1185.161,978.111,1039.862,978.111z"/>
			</g>
			<g>
				<path style="fill:#783800;" d="M1170.103,1644.308H909.616c-17.018,0-31.459-13.271-32.869-30.21l-7.581-88.151l-23.859-277.936
					c-14.731-1.96-17.634-4.399-17.634-8.082l-29.743-229.825l7.38-0.957l29.625,229.11c1.305,0.533,4.959,1.651,14.256,2.737
					l3.018,0.352l31.955,372.119c1.097,13.128,12.275,23.399,25.452,23.399h260.486c13.39,0,24.348-10.056,25.492-23.392
					l31.919-372.126l3.018-0.352c9.383-1.094,13.023-2.223,14.303-2.748l29.578-229.099l7.38,0.957l-29.758,230.3
					c0.029,3.24-2.877,5.65-17.619,7.61l-31.404,366.094C1201.536,1631.324,1187.388,1644.308,1170.103,1644.308z
					 M1244.716,1239.169c-0.061,0.223-0.097,0.479-0.097,0.759L1244.716,1239.169z M835.035,1239.054l0.055,0.396
					C835.093,1239.32,835.075,1239.184,835.035,1239.054z"/>
			</g>
			<path style="fill:#CCCCCC;" d="M1222.988,987.11l-24.888,259.108c0,2.477-6.304,4.625-17.353,6.492l-24.711,387.856h14.095
				c15.195,0,27.869-11.627,29.171-26.76l31.66-369.062c11.049-1.385,17.38-2.987,17.38-4.818l29.76-230.258
				C1278.101,1001.081,1257.371,993.221,1222.988,987.11z"/>
		</g>
		<path style="fill:#FFFFFF;" d="M1032.793,772.891c-73.354-77.14-18.455-125.755,50.692-173.173
			c11.211-8.396,21.553-17.254,27.99-29.544c7.303-16.59,12.193-35.219,8.507-52.808c-6.6-33.372-39.306-54.197-68.175-68.854
			c56.695,17.879,97.537,58.063,75.727,120.875c-9.105,35.981-46.917,55.506-71.682,77.318
			C1003.108,690.715,1004.346,713.192,1032.793,772.891L1032.793,772.891z"/>
		<path style="fill:#FFFFFF;" d="M1079.533,1022.786c10.102-30.056,25.657-65.354,2.359-92.31
			c-47.811-54.139-126.124-65.389-178.635-114.954c-86.143-89.257,28.067-178.532,104.397-219.652
			c-27.463,42.044-108.835,112.35-87.151,164.74c17.672,35.42,69.383,52.076,102.805,74.022
			C1099.181,880.752,1159.196,944.041,1079.533,1022.786L1079.533,1022.786z"/>
	</g>
	<g>
		<path style="fill:#EDB26F;" d="M1250.258,968.453c0,0,12.549-43.103,37.101-45.831c24.553-2.728,30.009,21.279,12.55,28.917
			C1282.449,959.178,1262.261,952.085,1250.258,968.453z"/>
		<path style="fill:#EDB26F;" d="M1284.505,973.203c0,0,22.566-14.683,34.793-6.318c12.228,8.365,5.316,21.411-5.608,18.053
			C1302.766,981.58,1296.365,970.458,1284.505,973.203z"/>
	</g>
	<g>
		<path style="fill:#EDB26F;" d="M823.819,968.998c0,0-12.549-43.103-37.101-45.831c-24.553-2.728-30.009,21.279-12.549,28.917
			C791.628,959.723,811.816,952.63,823.819,968.998z"/>
		<path style="fill:#EDB26F;" d="M789.572,973.748c0,0-22.566-14.683-34.793-6.318c-12.227,8.365-5.316,21.411,5.608,18.053
			C771.312,982.126,777.713,971.004,789.572,973.748z"/>
	</g>
</g>
</svg>
